<?xml version="1.0" standalone="no"?><!DOCTYPE svg PUBLIC "-//W3C//DTD SVG 1.1//EN" "http://www.w3.org/Graphics/SVG/1.1/DTD/svg11.dtd"><svg t="1556094037700" class="icon" style="" viewBox="0 0 1025 1024" version="1.1" xmlns="http://www.w3.org/2000/svg" p-id="1124" xmlns:xlink="http://www.w3.org/1999/xlink" width="200.1953125" height="200"><defs><style type="text/css">.cls-1{fill: #fff;}</style></defs><path class="cls-1" d="M512 42.667008C254.733312 42.667008 42.665984 254.736384 42.665984 512s212.067328 469.331968 469.331968 469.331968c257.26464 0 469.334016-212.067328 469.334016-469.331968 0-257.26464-212.069376-469.334016-469.334016-469.334016M512 1024C228.692992 1024 0 795.307008 0 512 0 228.692992 228.692992 0 512 0c283.307008 0 512 228.692992 512 512 0 283.307008-228.692992 512-512 512" p-id="1125"></path><path class="cls-1" d="M631.883776 496.1024c10.61888 7.949312 10.61888 23.846912 0 31.7952L405.23776 678.93248C394.61888 686.880768 384 681.582592 384 668.33408V355.667968c0-13.249536 10.619904-18.548736 21.23776-10.600448l226.646016 151.03488z" p-id="1126"></path></svg>