<?xml version="1.0" standalone="no"?><!DOCTYPE svg PUBLIC "-//W3C//DTD SVG 1.1//EN" "http://www.w3.org/Graphics/SVG/1.1/DTD/svg11.dtd"><svg t="1556165483231" class="icon" style="" viewBox="0 0 1024 1024" version="1.1" xmlns="http://www.w3.org/2000/svg" p-id="15040" xmlns:xlink="http://www.w3.org/1999/xlink" width="200" height="200"><defs><style type="text/css"></style></defs><path d="M970.200188 918.979108 682.03307 630.834502c126.530788-136.062885 123.95615-349.507162-8.481162-481.951637-65.645093-65.6103-152.887063-101.756545-245.657956-101.756545-92.78522 0-180.026166 36.146245-245.657956 101.756545-135.445832 135.454018-135.445832 355.86087 0 491.314889 65.632813 65.623603 152.87376 101.762685 245.657956 101.762685 87.409792 0 169.892365-32.101115 234.039337-90.699722l287.99725 287.983947c2.785439 2.806929 6.466272 4.199649 10.119475 4.199649 3.667529 0 7.336082-1.391696 10.148128-4.199649C975.783347 933.648203 975.783347 924.57864 970.200188 918.979108zM653.284305 619.938338c-60.22771 60.191894-140.275837 93.352131-225.390353 93.352131-85.127819 0-165.175947-33.158191-225.390353-93.352131-124.264165-124.277468-124.264165-326.509379 0-450.780707 60.214407-60.207243 140.260487-93.358271 225.390353-93.358271 85.114516 0 165.16162 33.151028 225.390353 93.358271C777.547447 293.427936 777.547447 495.659847 653.284305 619.938338zM539.293111 384.470465l-100.32801 0 0-100.330056c0-7.90811-6.40999-14.332427-14.332427-14.332427s-14.332427 6.424316-14.332427 14.332427l0 100.330056-100.330056 0c-7.921413 0-14.332427 6.423293-14.332427 14.332427 0 7.91425 6.411013 14.332427 14.332427 14.332427l100.330056 0 0 100.32801c0 7.915273 6.40999 14.341636 14.332427 14.341636s14.332427-6.424316 14.332427-14.341636l0-100.32801 100.32801 0c7.922437 0 14.33345-6.417153 14.33345-14.332427C553.626561 390.893758 547.216571 384.470465 539.293111 384.470465z" p-id="15041" fill="#bbbbbb"></path></svg>