<?xml version="1.0" standalone="no"?><!DOCTYPE svg PUBLIC "-//W3C//DTD SVG 1.1//EN" "http://www.w3.org/Graphics/SVG/1.1/DTD/svg11.dtd"><svg t="1556179427347" class="icon" style="" viewBox="0 0 1024 1024" version="1.1" xmlns="http://www.w3.org/2000/svg" p-id="16081" xmlns:xlink="http://www.w3.org/1999/xlink" width="200" height="200"><defs><style type="text/css"></style></defs><path d="M520.533333 285.866667c140.8 12.8 251.733333 132.266667 251.733334 277.333333 0 153.6-123.733333 277.333333-277.333334 277.333333-98.133333 0-192-55.466667-238.933333-140.8-4.266667-8.533333-4.266667-21.333333 8.533333-29.866666 8.533333-4.266667 21.333333-4.266667 29.866667 8.533333 42.666667 72.533333 119.466667 119.466667 204.8 119.466667 128 0 234.666667-106.666667 234.666667-234.666667s-98.133333-230.4-226.133334-234.666667l64 102.4c4.266667 8.533333 4.266667 21.333333-8.533333 29.866667-8.533333 4.266667-21.333333 4.266667-29.866667-8.533333l-89.6-145.066667c-4.266667-8.533333-4.266667-21.333333 8.533334-29.866667L597.333333 187.733333c8.533333-4.266667 21.333333-4.266667 29.866667 8.533334 4.266667 8.533333 4.266667 21.333333-8.533333 29.866666l-98.133334 59.733334z" p-id="16082" fill="#bbbbbb"></path></svg>