<?xml version="1.0" standalone="no"?><!DOCTYPE svg PUBLIC "-//W3C//DTD SVG 1.1//EN" "http://www.w3.org/Graphics/SVG/1.1/DTD/svg11.dtd"><svg t="1556164715337" class="icon" style="" viewBox="0 0 1024 1024" version="1.1" xmlns="http://www.w3.org/2000/svg" p-id="6783" xmlns:xlink="http://www.w3.org/1999/xlink" width="200" height="200"><defs><style type="text/css"></style></defs><path d="M512.269015 1024a511.992548 511.992548 0 1 1 511.73106-511.73106 512.515523 512.515523 0 0 1-511.73106 511.73106z m0-971.426105a459.695045 459.695045 0 1 0 459.433557 459.695045A460.21802 460.21802 0 0 0 512.269015 52.573895z" p-id="6784" fill="#bbbbbb"></path><path d="M625.236897 279.958209m17.289056 19.617485l0 0q17.289056 19.617486-2.32843 36.906542l-221.089062 194.847658q-19.617486 17.289056-36.906541-2.32843l0 0q-17.289056-19.617486 2.32843-36.906541l221.089062-194.847658q19.617486-17.289056 36.906541 2.328429Z" p-id="6785" fill="#bbbbbb"></path><path d="M659.589773 705.350265m-17.289056 19.617485l0 0q-17.289056 19.617486-36.906541 2.32843l-221.089061-194.847658q-19.617486-17.289056-2.32843-36.906542l0 0q17.289056-19.617486 36.906541-2.328429l221.089062 194.847658q19.617486 17.289056 2.328429 36.906541Z" p-id="6786" fill="#bbbbbb"></path></svg>