<?xml version="1.0" standalone="no"?><!DOCTYPE svg PUBLIC "-//W3C//DTD SVG 1.1//EN" "http://www.w3.org/Graphics/SVG/1.1/DTD/svg11.dtd"><svg t="1556165471140" class="icon" style="" viewBox="0 0 1024 1024" version="1.1" xmlns="http://www.w3.org/2000/svg" p-id="14873" xmlns:xlink="http://www.w3.org/1999/xlink" width="200" height="200"><defs><style type="text/css"></style></defs><path d="M970.134697 918.755004 687.365518 636.000152c127.679961-137.26834 125.068484-352.5955-8.543583-486.215754-66.227354-66.197678-154.24192-102.658078-247.833505-102.658078-93.607958 0-181.63685 36.4604-247.833505 102.658078-136.647193 136.661519-136.647193 359.022886 0 495.67622 66.196655 66.193585 154.227594 102.650915 247.833505 102.650915 88.170109 0 171.383322-32.385595 236.113579-91.495854l282.584983 282.59317c2.825348 2.824325 6.523577 4.236488 10.222829 4.236488s7.398504-1.412163 10.222829-4.236488C975.783347 933.561221 975.783347 924.410817 970.134697 918.755004zM658.376277 625.00575c-60.762899 60.728106-141.519154 94.186126-227.387847 94.186126-85.883019 0-166.640298-33.458019-227.387847-94.186126-125.365242-125.376499-125.365242-329.388962 0-454.767508 60.747549-60.740386 141.504828-94.193289 227.387847-94.193289 85.868693 0 166.624948 33.45188 227.387847 94.193289C783.753799 295.617811 783.753799 499.628228 658.376277 625.00575zM556.394604 376.805902 310.580083 376.805902c-7.993045 0-14.46034 6.473435-14.46034 14.459317s6.467295 14.46034 14.46034 14.46034l245.815545 0c7.994068 0 14.46034-6.474458 14.46034-14.46034S564.387649 376.805902 556.394604 376.805902z" p-id="14874" fill="#bbbbbb"></path></svg>