<?xml version="1.0" standalone="no"?><!DOCTYPE svg PUBLIC "-//W3C//DTD SVG 1.1//EN" "http://www.w3.org/Graphics/SVG/1.1/DTD/svg11.dtd"><svg t="1556179491045" class="icon" style="" viewBox="0 0 1024 1024" version="1.1" xmlns="http://www.w3.org/2000/svg" p-id="16395" xmlns:xlink="http://www.w3.org/1999/xlink" width="200" height="200"><defs><style type="text/css"></style></defs><path d="M503.466667 285.866667L405.333333 226.133333c-8.533333-8.533333-12.8-21.333333-8.533333-29.866666 8.533333-8.533333 21.333333-12.8 29.866667-8.533334l145.066666 89.6c8.533333 4.266667 12.8 17.066667 8.533334 29.866667l-89.6 145.066667c-4.266667 8.533333-17.066667 12.8-29.866667 8.533333-8.533333-4.266667-12.8-17.066667-8.533333-29.866667l64-102.4c-123.733333 4.266667-226.133333 106.666667-226.133334 234.666667s106.666667 234.666667 234.666667 234.666667c85.333333 0 162.133333-46.933333 204.8-119.466667 4.266667-8.533333 17.066667-12.8 29.866667-8.533333 8.533333 4.266667 12.8 17.066667 8.533333 29.866666-51.2 85.333333-140.8 140.8-238.933333 140.8-153.6 0-277.333333-123.733333-277.333334-277.333333 0-145.066667 110.933333-264.533333 251.733334-277.333333z" p-id="16396" fill="#bbbbbb"></path></svg>