<?xml version="1.0" standalone="no"?><!DOCTYPE svg PUBLIC "-//W3C//DTD SVG 1.1//EN" "http://www.w3.org/Graphics/SVG/1.1/DTD/svg11.dtd"><svg t="1557112436644" class="icon" style="" viewBox="0 0 1024 1024" version="1.1" xmlns="http://www.w3.org/2000/svg" p-id="4283" xmlns:xlink="http://www.w3.org/1999/xlink" width="200" height="200"><defs><style type="text/css"></style></defs><path d="M512 0C229.216 0 0 229.216 0 512c0 282.768 229.216 512 512 512 282.752 0 512-229.232 512-512C1024 229.216 794.752 0 512 0zM512 992C246.896 992 32 777.088 32 512 32 246.896 246.896 32 512 32c265.056 0 480 214.896 480 480C992 777.088 777.056 992 512 992z" p-id="4284" fill="#bbbbbb"></path><path d="M688.976 328.096l32.144-55.664c4.416-7.648 1.792-17.424-5.856-21.856-7.648-4.416-17.424-1.792-21.84 5.856l-33.904 58.72c-39.68-15.504-84.24-24.784-131.504-26.544L528.016 220c0-8.832-7.152-16-16-16-8.832 0-16 7.168-16 16l0 68.608c-46.768 1.728-90.864 10.864-130.224 26.08l-33.632-58.256c-4.416-7.648-14.208-10.272-21.856-5.856s-10.272 14.208-5.856 21.856l31.824 55.12C249.408 370.464 192 444.16 192 528c0 132.544 143.264 240 320 240s320-107.456 320-240C832 444.544 775.152 371.104 688.976 328.096zM512 736c-159.056 0-288-93.12-288-208 0-72.144 50.896-135.664 128.112-172.976l0.32 0.544 4.96-2.864C402.096 332.096 455.04 320 512 320c59.664 0 115.088 13.104 161.056 35.552l0.048 0.016 0 0C749.664 392.96 800 456.24 800 528 800 642.88 671.056 736 512 736z" p-id="4285" fill="#bbbbbb"></path><path d="M512 672c-79.392 0-144-64.592-144-144 0-79.392 64.608-144 144-144 79.408 0 144 64.608 144 144C656 607.408 591.408 672 512 672zM512 416c-61.76 0-112 50.24-112 112 0 61.744 50.24 112 112 112 61.744 0 112-50.256 112-112C624 466.24 573.744 416 512 416z" p-id="4286" fill="#bbbbbb"></path></svg>